<svg width="66" height="66" viewBox="0 0 66 66" fill="none" xmlns="http://www.w3.org/2000/svg">
<g clip-path="url(#clip0_448_279)">
<path d="M45.375 28.875C45.375 35.7225 39.8475 41.25 33 41.25C26.1525 41.25 20.625 35.7225 20.625 28.875C20.625 22.0275 26.1525 16.5 33 16.5C39.8475 16.5 45.375 22.0275 45.375 28.875Z" fill="white"/>
<path fill-rule="evenodd" clip-rule="evenodd" d="M66 33C66 51.2325 51.2325 66 33 66C14.7675 66 0 51.2325 0 33C0 14.7675 14.7675 0 33 0C51.2325 0 66 14.7675 66 33ZM16.5 56.7188C17.16 55.6215 23.5537 45.375 32.9587 45.375C42.3225 45.375 48.7575 55.6463 49.4175 56.7188C53.2532 54.0663 56.3872 50.5219 58.55 46.3902C60.7129 42.2586 61.8397 37.6635 61.8337 33C61.8337 17.0363 48.9225 4.125 32.9587 4.125C16.995 4.125 4.08375 17.0363 4.08375 33C4.08375 42.8175 8.9925 51.5213 16.5 56.7188Z" fill="white"/>
</g>
<defs>
<clipPath id="clip0_448_279">
<rect width="66" height="66" fill="white"/>
</clipPath>
</defs>
</svg>
