<svg width="63" height="63" viewBox="0 0 63 63" fill="none" xmlns="http://www.w3.org/2000/svg">
<path fill-rule="evenodd" clip-rule="evenodd" d="M47.25 15.75V47.25H15.75V15.75H47.25ZM29.0083 23.625H25.9405L20.1162 39.375H22.8839L23.9834 36.296H30.9555L32.0316 39.375H34.9659L29.0083 23.625ZM39.8788 23.625H37.1223V39.375H39.8788V23.625ZM27.451 26.2674L30.1968 34.125H24.749L27.451 26.2674ZM49.8752 39.375H55.125V44.625H49.875L49.8752 39.375ZM18.3752 49.875H23.625V55.125H18.375L18.3752 49.875ZM28.8752 49.875H34.1251V55.125H28.8752V49.875ZM18.375 7.875H23.625V13.125H18.375V7.875ZM39.375 49.875H44.625V55.125H39.375V49.875ZM28.875 7.875H34.125V13.125H28.875V7.875ZM39.375 7.875H44.625V13.125H39.375V7.875ZM49.875 28.875H55.125V34.125H49.875V28.875ZM7.875 39.375H13.125V44.625H7.875V39.375ZM49.875 18.375H55.125V23.625H49.875V18.375ZM7.875 28.875H13.125V34.125H7.875V28.875ZM7.875 18.375H13.125V23.625H7.875V18.375Z" fill="white"/>
</svg>
