<svg width="52" height="52" viewBox="0 0 52 52" fill="none" xmlns="http://www.w3.org/2000/svg">
<path d="M34.541 23.5625C35.116 21.9362 36.2474 20.5655 37.7353 19.6927C39.2231 18.8199 40.9717 18.5011 42.6718 18.7928C44.372 19.0845 45.9142 19.9679 47.0261 21.2867C48.1379 22.6056 48.7478 24.275 48.7478 26C48.7478 27.725 48.1379 29.3945 47.0261 30.7133C45.9142 32.0322 44.372 32.9155 42.6718 33.2072C40.9717 33.4989 39.2231 33.1802 37.7353 32.3074C36.2474 31.4346 35.116 30.0639 34.541 28.4375H28.0215C27.4446 30.0701 26.3071 31.4449 24.8115 32.3174C23.3159 33.1899 21.5593 33.5033 19.8542 33.202L16.3475 39.403C17.4018 40.768 17.9397 42.4617 17.8662 44.1848C17.7926 45.908 17.1124 47.5497 15.9456 48.8199C14.7789 50.0901 13.2007 50.907 11.49 51.1263C9.77923 51.3455 8.04605 50.9531 6.59667 50.0182C5.14728 49.0833 4.07499 47.6662 3.56925 46.0173C3.06351 44.3684 3.15687 42.5938 3.83286 41.0071C4.50884 39.4203 5.72392 38.1236 7.2634 37.346C8.80289 36.5684 10.5677 36.36 12.246 36.7575L15.6097 30.8035C14.4504 29.4718 13.812 27.7657 13.8125 26C13.8125 24.1605 14.4917 22.4835 15.6097 21.1965L12.246 15.2425C10.5677 15.6401 8.80289 15.4317 7.2634 14.6541C5.72392 13.8765 4.50884 12.5797 3.83286 10.993C3.15687 9.40625 3.06351 7.63165 3.56925 5.98273C4.07499 4.33382 5.14728 2.91673 6.59667 1.98187C8.04605 1.047 9.77923 0.654534 11.49 0.873804C13.2007 1.09307 14.7789 1.90997 15.9456 3.18016C17.1124 4.45034 17.7926 6.09205 17.8662 7.81521C17.9397 9.53837 17.4018 11.2321 16.3475 12.597L19.8542 18.798C21.5593 18.4967 23.3159 18.8102 24.8115 19.6827C26.3071 20.5551 27.4446 21.93 28.0215 23.5625H34.541ZM8.12496 8.12503C8.12496 8.77149 8.38177 9.39148 8.83889 9.8486C9.29601 10.3057 9.916 10.5625 10.5625 10.5625C11.2089 10.5625 11.8289 10.3057 12.286 9.8486C12.7432 9.39148 13 8.77149 13 8.12503C13 7.47856 12.7432 6.85858 12.286 6.40146C11.8289 5.94434 11.2089 5.68753 10.5625 5.68753C9.916 5.68753 9.29601 5.94434 8.83889 6.40146C8.38177 6.85858 8.12496 7.47856 8.12496 8.12503ZM21.125 23.5625C20.4785 23.5625 19.8585 23.8193 19.4014 24.2765C18.9443 24.7336 18.6875 25.3536 18.6875 26C18.6875 26.6465 18.9443 27.2665 19.4014 27.7236C19.8585 28.1807 20.4785 28.4375 21.125 28.4375C21.7714 28.4375 22.3914 28.1807 22.8485 27.7236C23.3057 27.2665 23.5625 26.6465 23.5625 26C23.5625 25.3536 23.3057 24.7336 22.8485 24.2765C22.3914 23.8193 21.7714 23.5625 21.125 23.5625ZM41.4375 23.5625C40.791 23.5625 40.171 23.8193 39.7139 24.2765C39.2568 24.7336 39 25.3536 39 26C39 26.6465 39.2568 27.2665 39.7139 27.7236C40.171 28.1807 40.791 28.4375 41.4375 28.4375C42.0839 28.4375 42.7039 28.1807 43.161 27.7236C43.6182 27.2665 43.875 26.6465 43.875 26C43.875 25.3536 43.6182 24.7336 43.161 24.2765C42.7039 23.8193 42.0839 23.5625 41.4375 23.5625ZM10.5625 41.4375C9.916 41.4375 9.29601 41.6943 8.83889 42.1515C8.38177 42.6086 8.12496 43.2286 8.12496 43.875C8.12496 44.5215 8.38177 45.1415 8.83889 45.5986C9.29601 46.0557 9.916 46.3125 10.5625 46.3125C11.2089 46.3125 11.8289 46.0557 12.286 45.5986C12.7432 45.1415 13 44.5215 13 43.875C13 43.2286 12.7432 42.6086 12.286 42.1515C11.8289 41.6943 11.2089 41.4375 10.5625 41.4375Z" fill="white"/>
</svg>
