<svg width="1928" height="1088" viewBox="0 0 1928 1088" fill="none" xmlns="http://www.w3.org/2000/svg">
<g clip-path="url(#clip0_532_2)" filter="url(#filter0_d_532_2)">
<rect width="1080" height="1920" transform="translate(4 1080) rotate(-90)" fill="black"/>
<rect x="-723.607" y="568.656" width="23" height="3131" transform="rotate(-45 -723.607 568.656)" fill="#D9D9D9"/>
<path fill-rule="evenodd" clip-rule="evenodd" d="M235.71 137.147C240.462 137.9 244.74 139.082 247.607 141.202C250.975 143.692 253.334 147.01 254.015 151.15C254.712 155.396 253.382 159.356 250.84 162.792C245.862 169.524 239.999 175.48 233.25 180.659C226.607 185.762 220.004 189.748 213.446 192.56C207.428 195.169 201.191 197.241 194.808 198.751C188.802 200.135 183.433 200.819 178.776 200.678C174.45 200.548 170.228 199.817 167.199 197.576C163.782 195.05 161.627 191.015 160.208 186.443C158.765 181.784 158.042 176.519 157.958 170.72C157.869 164.589 159.061 157.915 161.371 150.76C163.757 143.397 167.335 136.476 171.961 130.271C173.023 128.836 173.993 127.609 174.833 126.72C176.024 125.5 177.42 124.497 178.956 123.756C181.583 122.415 184.378 122.481 186.9 123.333C189.102 124.081 191.339 125.402 193.552 127.038C196.663 129.339 200.797 131.277 206.121 132.729C211.64 134.231 216.613 135.128 221.07 135.455C225.972 135.816 230.856 136.38 235.71 137.147ZM112.053 96.4607C122.718 98.0569 132.555 102.218 141.535 108.858C143.462 110.284 144.992 111.447 146.083 112.329C147.152 113.186 148.619 114.408 150.487 115.995C152.479 117.682 154.176 119.352 155.386 120.989C156.434 122.414 157.41 123.992 158.316 125.722C159.489 127.955 160.126 130.42 159.896 133.018C159.67 135.493 158.733 137.738 157.281 139.702C154.231 143.826 151.956 148.944 150.549 155.169C149.114 161.595 148.652 168.201 149.18 174.765C149.313 176.473 149.758 178.916 150.623 182.204C151.541 185.698 152.232 188.7 152.695 191.21C152.97 192.592 153.074 194.002 153.005 195.409C152.915 196.739 152.574 198.424 151.462 199.929C148.875 203.427 144.38 205.116 139.759 206.014C134.877 206.94 129.921 207.415 124.953 207.432C119.14 207.519 113.332 207.783 107.535 208.221C100.843 208.695 95.1745 209.479 90.4908 210.538C85.673 211.742 81.0477 213.615 76.7503 216.104C71.8365 218.887 68.2647 221.165 65.9237 222.944C64.7435 223.872 63.496 224.712 62.1916 225.455C61.6665 225.74 60.9355 226.099 60.1074 226.317C59.5701 226.448 57.3684 226.984 55.3066 225.459C51.6181 222.732 48.8926 218.055 46.7146 212.494C44.4489 206.685 42.9106 199.842 42.0265 192.054C41.1365 184.006 40.8633 175.9 41.2095 167.81C41.5592 159.165 43.1297 150.389 45.921 141.482C48.7303 132.494 52.6544 124.551 57.7218 117.699C63.887 109.362 71.8752 103.298 81.5828 99.5878C91.2461 95.895 101.439 94.8713 112.06 96.4597" fill="white" fill-opacity="0.25"/>
<path fill-rule="evenodd" clip-rule="evenodd" d="M177.644 838.529C182.371 839.426 186.611 840.738 189.412 842.944C192.702 845.536 194.96 848.923 195.515 853.082C196.083 857.347 194.632 861.265 191.988 864.623C186.807 871.2 180.766 876.975 173.862 881.946C167.068 886.845 160.347 890.629 153.706 893.24C147.611 895.665 141.315 897.546 134.889 898.862C128.844 900.062 123.456 900.583 118.806 900.3C114.485 900.039 110.288 899.18 107.328 896.849C103.99 894.22 101.958 890.121 100.679 885.508C99.3784 880.808 98.8154 875.523 98.908 869.724C99.0044 863.593 100.399 856.959 102.925 849.877C105.535 842.59 109.321 835.781 114.134 829.719C115.239 828.317 116.245 827.12 117.112 826.257C118.34 825.074 119.765 824.113 121.323 823.42C123.99 822.159 126.781 822.31 129.276 823.238C131.454 824.053 133.651 825.442 135.812 827.144C138.852 829.538 142.925 831.601 148.203 833.214C153.674 834.883 158.617 835.931 163.063 836.394C167.95 836.903 172.815 837.615 177.644 838.529ZM55.2801 794.104C65.8917 796.023 75.5983 800.482 84.3717 807.392C86.2551 808.875 87.7493 810.084 88.8124 810.999C89.8545 811.888 91.2847 813.154 93.103 814.797C95.0429 816.544 96.688 818.264 97.8484 819.938C98.8522 821.394 99.7802 823 100.632 824.758C101.737 827.025 102.299 829.508 101.991 832.098C101.69 834.565 100.685 836.781 99.1734 838.7C96 842.729 93.5705 847.775 91.9743 853.955C90.3447 860.335 89.6826 866.923 90.0104 873.5C90.0913 875.212 90.4622 877.667 91.2268 880.98C92.0387 884.5 92.6377 887.521 93.024 890.044C93.257 891.434 93.3184 892.847 93.2068 894.251C93.0762 895.578 92.6845 897.252 91.5265 898.722C88.8351 902.139 84.2905 903.691 79.6443 904.449C74.7369 905.226 69.7684 905.55 64.8016 905.416C58.9892 905.327 53.1753 905.413 47.3681 905.675C40.6652 905.946 34.9751 906.557 30.2614 907.474C25.4092 908.53 20.7292 910.262 16.3581 912.619C11.362 915.251 7.72259 917.419 5.32861 919.126C4.12076 920.019 2.84839 920.82 1.52193 921.524C0.988398 921.792 0.246829 922.129 -0.587464 922.322C-1.12849 922.436 -3.34545 922.905 -5.35998 921.318C-8.96389 918.48 -11.546 913.723 -13.554 908.098C-15.6422 902.223 -16.9718 895.336 -17.6188 887.525C-18.2638 879.453 -18.2905 871.343 -17.6986 863.267C-17.0863 854.637 -15.2499 845.913 -12.1892 837.095C-9.108 828.197 -4.94435 820.376 0.329009 813.681C6.74467 805.535 14.9135 799.717 24.7294 796.304C34.5004 792.906 44.72 792.193 55.2872 794.103" fill="white" fill-opacity="0.25"/>
<path fill-rule="evenodd" clip-rule="evenodd" d="M643.068 943.025C647.88 942.993 652.293 943.462 655.467 945.087C659.196 946.995 662.064 949.884 663.411 953.857C664.791 957.933 664.123 962.057 662.176 965.862C658.361 973.315 653.547 980.146 647.732 986.356C642.01 992.473 636.145 997.483 630.133 1001.33C624.62 1004.88 618.804 1007.94 612.753 1010.47C607.053 1012.82 601.868 1014.37 597.249 1014.98C592.96 1015.56 588.676 1015.53 585.321 1013.81C581.539 1011.88 578.755 1008.25 576.61 1003.97C574.427 999.605 572.855 994.528 571.828 988.82C570.74 982.786 570.829 976.008 571.941 968.571C573.096 960.918 575.498 953.506 579.051 946.63C579.865 945.041 580.622 943.673 581.306 942.659C582.283 941.261 583.496 940.044 584.891 939.062C587.265 937.311 590.032 936.921 592.659 937.35C594.954 937.729 597.377 938.668 599.826 939.922C603.271 941.685 607.665 942.923 613.155 943.488C618.845 944.071 623.898 944.145 628.349 943.742C633.243 943.299 638.154 943.06 643.068 943.025ZM514.433 923.036C525.216 922.872 535.6 925.375 545.542 930.463C547.676 931.555 549.375 932.453 550.595 933.146C551.789 933.817 553.436 934.784 555.537 936.044C557.778 937.384 559.724 938.755 561.185 940.174C562.451 941.409 563.671 942.806 564.847 944.366C566.368 946.378 567.398 948.706 567.595 951.307C567.776 953.786 567.217 956.153 566.104 958.328C563.768 962.893 562.357 968.314 561.983 974.685C561.614 981.259 562.235 987.852 563.826 994.242C564.235 995.906 565.073 998.244 566.462 1001.35C567.937 1004.64 569.108 1007.49 569.974 1009.89C570.47 1011.21 570.803 1012.59 570.964 1013.99C571.092 1015.31 571.031 1017.03 570.178 1018.7C568.196 1022.57 564.037 1024.97 559.624 1026.61C554.958 1028.32 550.146 1029.59 545.246 1030.42C539.526 1031.45 533.838 1032.66 528.19 1034.04C521.665 1035.6 516.2 1037.29 511.752 1039.1C507.194 1041.07 502.936 1043.68 499.102 1046.83C494.707 1050.38 491.554 1053.21 489.535 1055.35C488.521 1056.45 487.428 1057.49 486.262 1058.43C485.79 1058.8 485.127 1059.27 484.346 1059.62C483.837 1059.84 481.752 1060.73 479.469 1059.56C475.386 1057.47 471.935 1053.3 468.879 1048.17C465.697 1042.8 463.064 1036.3 460.923 1028.76C458.733 1020.97 457.142 1013.02 456.165 1004.98C455.102 996.39 455.221 987.475 456.523 978.233C457.83 968.907 460.407 960.431 464.29 952.844C469.014 943.614 475.907 936.329 484.881 931.087C493.813 925.868 503.703 923.197 514.44 923.033" fill="white" fill-opacity="0.25"/>
<path fill-rule="evenodd" clip-rule="evenodd" d="M240.333 465.023C244.464 467.49 247.995 470.178 249.868 473.213C252.067 476.777 253.023 480.733 252.116 484.83C251.184 489.031 248.475 492.212 244.838 494.456C237.713 498.853 230.055 502.2 221.864 504.497C213.8 506.763 206.188 508.008 199.054 508.178C192.498 508.362 185.938 507.964 179.451 506.992C173.362 506.043 168.123 504.681 163.853 502.817C159.885 501.088 156.239 498.839 154.26 495.632C152.028 492.016 151.528 487.469 151.912 482.698C152.306 477.836 153.593 472.68 155.672 467.266C157.869 461.541 161.458 455.79 166.264 450.007C171.218 444.061 177.114 438.967 183.716 434.928C185.235 433.99 186.592 433.213 187.702 432.7C189.262 432.01 190.931 431.598 192.632 431.482C195.57 431.215 198.139 432.315 200.163 434.044C201.929 435.558 203.515 437.616 204.96 439.958C206.992 443.251 210.109 446.587 214.51 449.915C219.075 453.363 223.357 456.046 227.373 458.007C231.788 460.165 236.112 462.505 240.333 465.023ZM140.682 381.259C149.988 386.708 157.572 394.23 163.437 403.734C164.696 405.774 165.684 407.423 166.368 408.647C167.041 409.841 167.95 411.521 169.093 413.688C170.314 415.995 171.268 418.176 171.783 420.147C172.225 421.859 172.545 423.686 172.741 425.629C173 428.138 172.674 430.663 171.495 432.99C170.364 435.203 168.66 436.939 166.581 438.222C162.216 440.915 158.201 444.82 154.579 450.074C150.856 455.506 147.971 461.466 146.019 467.755C145.507 469.39 145.011 471.824 144.591 475.198C144.144 478.782 143.669 481.825 143.165 484.328C142.906 485.712 142.478 487.06 141.891 488.341C141.313 489.542 140.369 490.98 138.777 491.963C135.075 494.247 130.274 494.143 125.65 493.258C120.775 492.302 115.997 490.899 111.379 489.066C105.951 486.986 100.461 485.069 94.9176 483.32C88.5298 481.271 82.9762 479.89 78.2345 479.131C73.3146 478.457 68.3244 478.475 63.4097 479.186C57.8134 479.942 53.6506 480.728 50.8158 481.508C49.375 481.931 47.9048 482.246 46.4173 482.451C45.8239 482.52 45.0118 482.582 44.1621 482.476C43.6146 482.398 41.3716 482.076 40.0249 479.894C37.6156 475.99 36.8252 470.635 36.8721 464.663C36.9295 458.428 38.0471 451.504 40.1231 443.947C42.2909 436.144 45.0522 428.519 48.383 421.138C51.9232 413.243 56.6453 405.681 62.5494 398.452C68.5003 391.154 75.0975 385.24 82.3502 380.764C91.174 375.319 100.845 372.662 111.236 372.828C121.579 372.995 131.422 375.836 140.689 381.261" fill="white" fill-opacity="0.25"/>
<path fill-rule="evenodd" clip-rule="evenodd" d="M557.981 321.143C562.749 321.792 567.051 322.881 569.964 324.938C573.385 327.354 575.816 330.619 576.587 334.743C577.377 338.973 576.133 342.961 573.667 346.452C568.837 353.291 563.105 359.373 556.47 364.698C549.941 369.945 543.427 374.075 536.931 377.029C530.971 379.768 524.781 381.975 518.433 383.624C512.459 385.139 507.106 385.941 502.447 385.901C498.118 385.866 493.882 385.227 490.804 383.053C487.334 380.602 485.091 376.615 483.573 372.075C482.029 367.449 481.191 362.2 480.98 356.404C480.757 350.277 481.803 343.579 483.956 336.375C486.182 328.962 489.608 321.964 494.098 315.66C495.128 314.202 496.071 312.954 496.891 312.047C498.055 310.801 499.429 309.768 500.949 308.993C503.546 307.596 506.341 307.601 508.881 308.397C511.099 309.097 513.365 310.369 515.612 311.957C518.773 314.189 522.948 316.036 528.302 317.371C533.853 318.753 538.845 319.542 543.308 319.771C548.216 320.025 553.111 320.482 557.981 321.143ZM433.465 283.165C444.163 284.528 454.089 288.473 463.211 294.916C465.169 296.299 466.724 297.429 467.834 298.286C468.921 299.12 470.415 300.31 472.317 301.855C474.345 303.498 476.078 305.131 477.324 306.742C478.402 308.143 479.413 309.699 480.356 311.409C481.577 313.616 482.268 316.067 482.095 318.669C481.923 321.149 481.036 323.414 479.626 325.409C476.667 329.598 474.505 334.765 473.233 341.019C471.939 347.475 471.621 354.089 472.292 360.64C472.462 362.345 472.961 364.778 473.897 368.046C474.892 371.519 475.648 374.505 476.165 377.004C476.47 378.38 476.605 379.787 476.567 381.196C476.506 382.527 476.202 384.22 475.122 385.749C472.613 389.301 468.156 391.089 463.555 392.087C458.695 393.12 453.75 393.702 448.783 393.828C442.974 394.042 437.173 394.432 431.387 394.997C424.707 395.617 419.057 396.524 414.398 397.686C409.607 398.994 405.024 400.968 400.782 403.549C395.93 406.439 392.409 408.794 390.107 410.624C388.947 411.578 387.718 412.444 386.431 413.216C385.912 413.512 385.189 413.887 384.366 414.123C383.831 414.266 381.642 414.85 379.547 413.37C375.8 410.724 372.973 406.108 370.674 400.596C368.283 394.838 366.595 388.03 365.542 380.263C364.476 372.236 364.026 364.138 364.196 356.042C364.357 347.392 365.735 338.584 368.332 329.618C370.944 320.571 374.694 312.544 379.611 305.583C385.593 297.114 393.447 290.877 403.071 286.956C412.651 283.053 422.82 281.807 433.472 283.163" fill="white" fill-opacity="0.25"/>
<path fill-rule="evenodd" clip-rule="evenodd" d="M869.183 585.346C873.951 585.995 878.253 587.083 881.166 589.141C884.587 591.557 887.018 594.822 887.789 598.946C888.579 603.176 887.335 607.164 884.869 610.655C880.039 617.494 874.307 623.576 867.673 628.901C861.143 634.147 854.629 638.277 848.133 641.232C842.174 643.971 835.983 646.178 829.635 647.827C823.661 649.342 818.308 650.143 813.649 650.103C809.321 650.068 805.084 649.429 802.006 647.255C798.536 644.804 796.293 640.817 794.775 636.277C793.231 631.651 792.393 626.403 792.183 620.607C791.959 614.48 793.005 607.782 795.158 600.577C797.384 593.165 800.81 586.167 805.3 579.863C806.33 578.404 807.273 577.157 808.093 576.25C809.258 575.004 810.631 573.97 812.151 573.196C814.748 571.798 817.543 571.803 820.083 572.6C822.301 573.3 824.567 574.572 826.814 576.159C829.975 578.391 834.15 580.238 839.504 581.574C845.055 582.956 850.047 583.744 854.51 583.974C859.418 584.227 864.313 584.685 869.183 585.346ZM744.667 547.367C755.365 548.73 765.291 552.676 774.413 559.119C776.371 560.502 777.926 561.631 779.036 562.489C780.123 563.323 781.617 564.513 783.519 566.058C785.547 567.701 787.28 569.333 788.526 570.944C789.604 572.346 790.615 573.902 791.558 575.612C792.78 577.819 793.47 580.269 793.297 582.872C793.125 585.351 792.238 587.616 790.828 589.612C787.87 593.801 785.707 598.967 784.435 605.221C783.141 611.678 782.824 618.292 783.494 624.842C783.664 626.548 784.163 628.981 785.099 632.249C786.094 635.721 786.85 638.707 787.367 641.207C787.672 642.582 787.807 643.99 787.769 645.398C787.708 646.73 787.404 648.423 786.325 649.951C783.815 653.504 779.358 655.291 774.757 656.29C769.897 657.322 764.952 657.905 759.985 658.031C754.176 658.245 748.375 658.635 742.589 659.2C735.91 659.82 730.259 660.727 725.6 661.888C720.809 663.197 716.226 665.171 711.984 667.752C707.132 670.641 703.611 672.997 701.309 674.826C700.149 675.78 698.921 676.647 697.633 677.419C697.114 677.715 696.391 678.09 695.568 678.326C695.034 678.469 692.844 679.052 690.749 677.573C687.002 674.926 684.175 670.311 681.877 664.798C679.485 659.04 677.797 652.232 676.744 644.466C675.678 636.438 675.228 628.341 675.398 620.245C675.559 611.594 676.938 602.786 679.534 593.821C682.146 584.774 685.896 576.747 690.813 569.785C696.795 561.316 704.649 555.08 714.273 551.158C723.854 547.256 734.022 546.01 744.674 547.366" fill="white" fill-opacity="0.25"/>
<path fill-rule="evenodd" clip-rule="evenodd" d="M1817.18 559.346C1821.95 559.995 1826.25 561.083 1829.17 563.141C1832.59 565.557 1835.02 568.822 1835.79 572.946C1836.58 577.176 1835.34 581.164 1832.87 584.655C1828.04 591.494 1822.31 597.576 1815.67 602.901C1809.14 608.147 1802.63 612.277 1796.13 615.232C1790.17 617.971 1783.98 620.178 1777.64 621.827C1771.66 623.342 1766.31 624.143 1761.65 624.103C1757.32 624.068 1753.08 623.429 1750.01 621.255C1746.54 618.804 1744.29 614.817 1742.77 610.277C1741.23 605.651 1740.39 600.403 1740.18 594.607C1739.96 588.48 1741.01 581.782 1743.16 574.577C1745.38 567.165 1748.81 560.167 1753.3 553.863C1754.33 552.404 1755.27 551.157 1756.09 550.25C1757.26 549.004 1758.63 547.97 1760.15 547.196C1762.75 545.798 1765.54 545.803 1768.08 546.6C1770.3 547.3 1772.57 548.572 1774.81 550.159C1777.97 552.391 1782.15 554.238 1787.5 555.574C1793.06 556.956 1798.05 557.744 1802.51 557.974C1807.42 558.227 1812.31 558.685 1817.18 559.346ZM1692.67 521.367C1703.36 522.73 1713.29 526.676 1722.41 533.119C1724.37 534.502 1725.93 535.631 1727.04 536.489C1728.12 537.323 1729.62 538.513 1731.52 540.058C1733.55 541.701 1735.28 543.333 1736.53 544.944C1737.6 546.346 1738.61 547.902 1739.56 549.612C1740.78 551.819 1741.47 554.269 1741.3 556.872C1741.13 559.351 1740.24 561.616 1738.83 563.612C1735.87 567.801 1733.71 572.967 1732.44 579.221C1731.14 585.678 1730.82 592.292 1731.49 598.842C1731.66 600.548 1732.16 602.981 1733.1 606.249C1734.09 609.721 1734.85 612.707 1735.37 615.207C1735.67 616.582 1735.81 617.99 1735.77 619.398C1735.71 620.73 1735.4 622.423 1734.32 623.951C1731.82 627.504 1727.36 629.291 1722.76 630.29C1717.9 631.322 1712.95 631.905 1707.99 632.031C1702.18 632.245 1696.37 632.635 1690.59 633.2C1683.91 633.82 1678.26 634.727 1673.6 635.888C1668.81 637.197 1664.23 639.171 1659.98 641.752C1655.13 644.641 1651.61 646.997 1649.31 648.826C1648.15 649.78 1646.92 650.647 1645.63 651.419C1645.11 651.715 1644.39 652.09 1643.57 652.326C1643.03 652.469 1640.84 653.052 1638.75 651.573C1635 648.926 1632.18 644.311 1629.88 638.798C1627.48 633.04 1625.8 626.232 1624.74 618.466C1623.68 610.438 1623.23 602.341 1623.4 594.245C1623.56 585.594 1624.94 576.786 1627.53 567.821C1630.15 558.774 1633.9 550.747 1638.81 543.785C1644.79 535.316 1652.65 529.08 1662.27 525.158C1671.85 521.256 1682.02 520.01 1692.67 521.366" fill="white" fill-opacity="0.25"/>
<path fill-rule="evenodd" clip-rule="evenodd" d="M778.231 138.245C782.334 140.759 785.834 143.487 787.672 146.543C789.831 150.131 790.742 154.099 789.788 158.185C788.809 162.375 786.064 165.525 782.402 167.728C775.227 172.044 767.532 175.303 759.315 177.507C751.226 179.682 743.6 180.84 736.465 180.929C729.907 181.038 723.352 180.566 716.877 179.52C710.798 178.502 705.576 177.081 701.327 175.169C697.379 173.394 693.758 171.104 691.816 167.875C689.626 164.234 689.177 159.681 689.615 154.914C690.064 150.058 691.41 144.916 693.55 139.526C695.812 133.827 699.466 128.117 704.337 122.389C709.359 116.499 715.312 111.473 721.96 107.509C723.49 106.589 724.855 105.827 725.971 105.327C727.539 104.655 729.212 104.262 730.915 104.165C733.855 103.931 736.412 105.061 738.416 106.812C740.164 108.346 741.726 110.422 743.145 112.78C745.139 116.096 748.218 119.467 752.582 122.845C757.107 126.345 761.358 129.076 765.352 131.083C769.742 133.29 774.039 135.68 778.231 138.245ZM679.538 53.3554C688.782 58.9094 696.28 66.5169 702.036 76.0868C703.272 78.1412 704.241 79.8012 704.912 81.0331C705.571 82.234 706.46 83.9245 707.579 86.1045C708.774 88.4252 709.703 90.6171 710.195 92.5934C710.618 94.3104 710.917 96.1415 711.091 98.0866C711.321 100.598 710.967 103.12 709.761 105.433C708.606 107.633 706.881 109.349 704.788 110.608C700.393 113.252 696.334 117.11 692.652 122.323C688.868 127.713 685.915 133.639 683.892 139.906C683.361 141.535 682.838 143.963 682.38 147.332C681.892 150.911 681.382 153.948 680.85 156.445C680.575 157.827 680.132 159.17 679.53 160.444C678.939 161.638 677.979 163.065 676.375 164.03C672.648 166.272 667.848 166.113 663.235 165.176C658.371 164.164 653.61 162.707 649.012 160.823C643.608 158.68 638.141 156.702 632.617 154.89C626.253 152.768 620.716 151.324 615.983 150.512C611.071 149.781 606.081 149.743 601.158 150.398C595.554 151.09 591.382 151.829 588.539 152.577C587.093 152.983 585.62 153.282 584.13 153.47C583.536 153.532 582.723 153.584 581.875 153.469C581.328 153.385 579.089 153.038 577.767 150.84C575.402 146.909 574.673 141.546 574.787 135.574C574.916 129.341 576.112 122.43 578.274 114.896C580.53 107.119 583.378 99.5255 586.792 92.1825C590.422 84.3288 595.229 76.821 601.215 69.659C607.249 62.4291 613.912 56.5907 621.215 52.1976C630.101 46.8529 639.801 44.3055 650.189 44.5904C660.53 44.8744 670.34 47.8273 679.545 53.3571" fill="white" fill-opacity="0.25"/>
<path fill-rule="evenodd" clip-rule="evenodd" d="M467.858 756.781C471.876 759.428 475.285 762.27 477.021 765.385C479.061 769.043 479.841 773.038 478.753 777.09C477.636 781.246 474.789 784.304 471.056 786.385C463.743 790.462 455.944 793.467 447.66 795.399C439.504 797.306 431.844 798.212 424.709 798.067C418.151 797.959 411.615 797.272 405.178 796.014C399.137 794.796 393.964 793.203 389.78 791.152C385.892 789.249 382.349 786.84 380.514 783.549C378.445 779.838 378.147 775.274 378.741 770.524C379.35 765.685 380.864 760.59 383.181 755.273C385.63 749.652 389.47 744.065 394.527 738.501C399.739 732.779 405.855 727.952 412.629 724.209C414.189 723.34 415.578 722.623 416.71 722.16C418.299 721.54 419.984 721.202 421.69 721.161C424.636 721.024 427.154 722.238 429.099 724.054C430.797 725.644 432.289 727.771 433.629 730.174C435.514 733.554 438.48 737.025 442.73 740.545C447.137 744.191 451.297 747.061 455.222 749.198C459.537 751.549 463.753 754.079 467.858 756.781ZM372.014 668.688C381.07 674.543 388.313 682.393 393.752 692.148C394.919 694.242 395.833 695.933 396.462 697.186C397.082 698.408 397.915 700.127 398.961 702.342C400.079 704.701 400.935 706.922 401.362 708.914C401.728 710.644 401.967 712.484 402.077 714.434C402.224 716.952 401.787 719.46 400.506 721.732C399.279 723.893 397.499 725.551 395.365 726.741C390.886 729.238 386.701 732.961 382.85 738.05C378.891 743.312 375.744 749.138 373.516 755.335C372.932 756.946 372.329 759.355 371.76 762.707C371.155 766.268 370.545 769.287 369.93 771.765C369.611 773.137 369.124 774.464 368.48 775.718C367.849 776.892 366.843 778.287 365.209 779.198C361.41 781.316 356.618 781 352.038 779.911C347.209 778.74 342.499 777.127 337.966 775.092C332.636 772.772 327.236 770.615 321.775 768.622C315.485 766.292 309.998 764.667 305.294 763.699C300.409 762.807 295.423 762.604 290.481 763.098C284.857 763.604 280.664 764.205 277.797 764.859C276.339 765.218 274.856 765.468 273.361 765.607C272.765 765.65 271.951 765.675 271.107 765.532C270.564 765.429 268.337 765.009 267.088 762.769C264.854 758.762 264.302 753.378 264.613 747.413C264.946 741.188 266.369 734.319 268.778 726.861C271.289 719.162 274.385 711.667 278.04 704.44C281.926 696.71 286.978 689.365 293.196 682.404C299.465 675.377 306.317 669.761 313.761 665.61C322.817 660.561 332.596 658.334 342.969 658.961C353.295 659.586 363.003 662.86 372.021 668.69" fill="white" fill-opacity="0.25"/>
<path fill-rule="evenodd" clip-rule="evenodd" d="M1183.88 133.407C1188.63 134.16 1192.91 135.342 1195.78 137.462C1199.14 139.952 1201.5 143.269 1202.18 147.409C1202.88 151.656 1201.55 155.616 1199.01 159.052C1194.03 165.784 1188.17 171.739 1181.42 176.918C1174.78 182.021 1168.17 186.008 1161.62 188.82C1155.6 191.429 1149.36 193.5 1142.98 195.01C1136.97 196.394 1131.6 197.079 1126.95 196.937C1122.62 196.808 1118.4 196.077 1115.37 193.836C1111.95 191.31 1109.8 187.275 1108.38 182.703C1106.93 178.044 1106.21 172.778 1106.13 166.979C1106.04 160.849 1107.23 154.175 1109.54 147.02C1111.93 139.657 1115.5 132.736 1120.13 126.531C1121.19 125.095 1122.16 123.869 1123 122.98C1124.19 121.76 1125.59 120.756 1127.13 120.016C1129.75 118.675 1132.55 118.741 1135.07 119.593C1137.27 120.341 1139.51 121.662 1141.72 123.298C1144.83 125.599 1148.97 127.536 1154.29 128.988C1159.81 130.491 1164.78 131.388 1169.24 131.715C1174.14 132.076 1179.03 132.64 1183.88 133.407ZM1060.22 92.7205C1070.89 94.3167 1080.72 98.4779 1089.7 105.118C1091.63 106.544 1093.16 107.707 1094.25 108.589C1095.32 109.446 1096.79 110.668 1098.66 112.254C1100.65 113.941 1102.34 115.611 1103.56 117.249C1104.6 118.674 1105.58 120.251 1106.48 121.982C1107.66 124.215 1108.3 126.68 1108.07 129.278C1107.84 131.753 1106.9 133.998 1105.45 135.962C1102.4 140.086 1100.13 145.204 1098.72 151.428C1097.28 157.855 1096.82 164.461 1097.35 171.024C1097.48 172.733 1097.93 175.176 1098.79 178.464C1099.71 181.957 1100.4 184.959 1100.86 187.47C1101.14 188.851 1101.24 190.262 1101.17 191.669C1101.08 192.999 1100.74 194.684 1099.63 196.189C1097.04 199.686 1092.55 201.376 1087.93 202.274C1083.05 203.2 1078.09 203.675 1073.12 203.692C1067.31 203.779 1061.5 204.042 1055.7 204.481C1049.01 204.955 1043.34 205.739 1038.66 206.798C1033.84 208.002 1029.22 209.875 1024.92 212.364C1020.01 215.146 1016.43 217.424 1014.09 219.203C1012.91 220.132 1011.67 220.971 1010.36 221.715C1009.84 222 1009.1 222.359 1008.28 222.577C1007.74 222.708 1005.54 223.244 1003.48 221.719C999.788 218.991 997.062 214.315 994.884 208.754C992.618 202.945 991.08 196.102 990.196 188.314C989.306 180.265 989.033 172.16 989.379 164.07C989.729 155.425 991.299 146.649 994.09 137.742C996.9 128.754 1000.82 120.811 1005.89 113.958C1012.06 105.622 1020.04 99.5578 1029.75 95.8476C1039.42 92.1547 1049.61 91.131 1060.23 92.7194" fill="white" fill-opacity="0.25"/>
<path fill-rule="evenodd" clip-rule="evenodd" d="M1125.81 834.789C1130.54 835.686 1134.78 836.998 1137.58 839.204C1140.87 841.795 1143.13 845.183 1143.68 849.342C1144.25 853.607 1142.8 857.525 1140.16 860.883C1134.98 867.46 1128.94 873.234 1122.03 878.206C1115.24 883.105 1108.52 886.889 1101.88 889.5C1095.78 891.925 1089.48 893.806 1083.06 895.121C1077.01 896.322 1071.63 896.843 1066.98 896.56C1062.65 896.299 1058.46 895.44 1055.5 893.108C1052.16 890.48 1050.13 886.381 1048.85 881.768C1047.55 877.067 1046.99 871.782 1047.08 865.983C1047.17 859.853 1048.57 853.219 1051.1 846.137C1053.7 838.85 1057.49 832.041 1062.3 825.979C1063.41 824.577 1064.42 823.38 1065.28 822.517C1066.51 821.334 1067.94 820.373 1069.49 819.679C1072.16 818.419 1074.95 818.57 1077.45 819.498C1079.62 820.313 1081.82 821.701 1083.98 823.404C1087.02 825.798 1091.1 827.86 1096.37 829.474C1101.84 831.143 1106.79 832.191 1111.23 832.653C1116.12 833.163 1120.98 833.875 1125.81 834.789ZM1003.45 790.364C1014.06 792.283 1023.77 796.741 1032.54 803.652C1034.43 805.135 1035.92 806.344 1036.98 807.259C1038.02 808.148 1039.45 809.414 1041.27 811.057C1043.21 812.803 1044.86 814.524 1046.02 816.198C1047.02 817.654 1047.95 819.26 1048.8 821.017C1049.91 823.285 1050.47 825.768 1050.16 828.358C1049.86 830.825 1048.85 833.041 1047.34 834.96C1044.17 838.989 1041.74 844.035 1040.14 850.214C1038.51 856.594 1037.85 863.183 1038.18 869.76C1038.26 871.472 1038.63 873.927 1039.4 877.24C1040.21 880.759 1040.81 883.781 1041.19 886.304C1041.43 887.694 1041.49 889.106 1041.38 890.511C1041.25 891.837 1040.85 893.512 1039.7 894.982C1037.01 898.399 1032.46 899.951 1027.81 900.708C1022.91 901.486 1017.94 901.81 1012.97 901.676C1007.16 901.586 1001.35 901.673 995.538 901.935C988.835 902.206 983.145 902.817 978.431 903.733C973.579 904.79 968.899 906.522 964.528 908.879C959.532 911.511 955.893 913.679 953.499 915.386C952.291 916.278 951.018 917.08 949.692 917.783C949.158 918.052 948.417 918.389 947.582 918.581C947.041 918.696 944.824 919.165 942.81 917.578C939.206 914.739 936.624 909.982 934.616 904.357C932.528 898.483 931.198 891.596 930.551 883.785C929.906 875.713 929.879 867.603 930.471 859.527C931.084 850.897 932.92 842.172 935.981 833.355C939.062 824.456 943.226 816.636 948.499 809.941C954.915 801.795 963.083 795.977 972.899 792.563C982.67 789.166 992.89 788.452 1003.46 790.363" fill="white" fill-opacity="0.25"/>
<path fill-rule="evenodd" clip-rule="evenodd" d="M1591.24 939.285C1596.05 939.253 1600.46 939.722 1603.64 941.347C1607.36 943.255 1610.23 946.143 1611.58 950.117C1612.96 954.193 1612.29 958.317 1610.35 962.121C1606.53 969.575 1601.72 976.406 1595.9 982.616C1590.18 988.733 1584.31 993.742 1578.3 997.586C1572.79 1001.14 1566.97 1004.2 1560.92 1006.73C1555.22 1009.07 1550.04 1010.63 1545.42 1011.24C1541.13 1011.82 1536.85 1011.79 1533.49 1010.07C1529.71 1008.14 1526.92 1004.51 1524.78 1000.23C1522.6 995.865 1521.02 990.788 1520 985.08C1518.91 979.046 1519 972.267 1520.11 964.831C1521.27 957.178 1523.67 949.766 1527.22 942.89C1528.03 941.301 1528.79 939.933 1529.48 938.919C1530.45 937.521 1531.67 936.303 1533.06 935.322C1535.43 933.571 1538.2 933.181 1540.83 933.61C1543.12 933.989 1545.55 934.928 1548 936.182C1551.44 937.945 1555.83 939.183 1561.32 939.748C1567.01 940.331 1572.07 940.405 1576.52 940.001C1581.41 939.558 1586.32 939.319 1591.24 939.285ZM1462.6 919.295C1473.39 919.132 1483.77 921.634 1493.71 926.722C1495.85 927.815 1497.54 928.713 1498.76 929.405C1499.96 930.077 1501.61 931.043 1503.71 932.304C1505.95 933.644 1507.89 935.015 1509.35 936.434C1510.62 937.669 1511.84 939.066 1513.02 940.626C1514.54 942.637 1515.57 944.966 1515.76 947.567C1515.95 950.045 1515.39 952.413 1514.27 954.588C1511.94 959.153 1510.53 964.573 1510.15 970.944C1509.78 977.519 1510.4 984.112 1512 990.502C1512.4 992.166 1513.24 994.504 1514.63 997.607C1516.11 1000.9 1517.28 1003.75 1518.14 1006.15C1518.64 1007.47 1518.97 1008.85 1519.13 1010.25C1519.26 1011.57 1519.2 1013.29 1518.35 1014.96C1516.37 1018.83 1512.21 1021.23 1507.79 1022.87C1503.13 1024.58 1498.32 1025.85 1493.42 1026.68C1487.7 1027.71 1482.01 1028.92 1476.36 1030.3C1469.83 1031.86 1464.37 1033.55 1459.92 1035.36C1455.36 1037.33 1451.11 1039.94 1447.27 1043.09C1442.88 1046.64 1439.72 1049.47 1437.7 1051.6C1436.69 1052.71 1435.6 1053.74 1434.43 1054.69C1433.96 1055.06 1433.3 1055.53 1432.52 1055.88C1432.01 1056.1 1429.92 1056.99 1427.64 1055.82C1423.56 1053.73 1420.1 1049.56 1417.05 1044.43C1413.87 1039.06 1411.23 1032.56 1409.09 1025.02C1406.9 1017.23 1405.31 1009.27 1404.33 1001.24C1403.27 992.65 1403.39 983.735 1404.69 974.493C1406 965.167 1408.58 956.69 1412.46 949.104C1417.18 939.874 1424.08 932.589 1433.05 927.346C1441.98 922.128 1451.87 919.457 1462.61 919.293" fill="white" fill-opacity="0.25"/>
<path fill-rule="evenodd" clip-rule="evenodd" d="M1188.5 461.283C1192.63 463.75 1196.16 466.438 1198.04 469.473C1200.24 473.037 1201.19 476.994 1200.29 481.09C1199.35 485.291 1196.64 488.472 1193.01 490.716C1185.88 495.113 1178.22 498.46 1170.03 500.758C1161.97 503.024 1154.36 504.268 1147.22 504.439C1140.67 504.622 1134.11 504.225 1127.62 503.252C1121.53 502.303 1116.29 500.941 1112.02 499.078C1108.05 497.348 1104.41 495.099 1102.43 491.892C1100.2 488.277 1099.7 483.729 1100.08 478.958C1100.48 474.097 1101.76 468.94 1103.84 463.526C1106.04 457.802 1109.63 452.05 1114.43 446.267C1119.39 440.321 1125.28 435.227 1131.89 431.188C1133.4 430.251 1134.76 429.473 1135.87 428.96C1137.43 428.271 1139.1 427.859 1140.8 427.742C1143.74 427.475 1146.31 428.576 1148.33 430.304C1150.1 431.818 1151.68 433.877 1153.13 436.218C1155.16 439.511 1158.28 442.847 1162.68 446.176C1167.24 449.623 1171.53 452.306 1175.54 454.267C1179.96 456.425 1184.28 458.766 1188.5 461.283ZM1088.85 377.52C1098.16 382.968 1105.74 390.49 1111.61 399.994C1112.87 402.034 1113.85 403.683 1114.54 404.907C1115.21 406.101 1116.12 407.781 1117.26 409.948C1118.48 412.255 1119.44 414.436 1119.95 416.407C1120.39 418.119 1120.71 419.947 1120.91 421.89C1121.17 424.399 1120.84 426.924 1119.66 429.25C1118.53 431.464 1116.83 433.199 1114.75 434.482C1110.39 437.175 1106.37 441.08 1102.75 446.334C1099.03 451.766 1096.14 457.726 1094.19 464.015C1093.68 465.651 1093.18 468.084 1092.76 471.458C1092.31 475.042 1091.84 478.085 1091.33 480.588C1091.08 481.973 1090.65 483.321 1090.06 484.601C1089.48 485.802 1088.54 487.24 1086.95 488.223C1083.24 490.507 1078.44 490.403 1073.82 489.518C1068.94 488.562 1064.17 487.159 1059.55 485.327C1054.12 483.246 1048.63 481.329 1043.09 479.58C1036.7 477.531 1031.15 476.15 1026.4 475.392C1021.48 474.717 1016.49 474.735 1011.58 475.447C1005.98 476.202 1001.82 476.988 998.985 477.768C997.544 478.191 996.074 478.507 994.587 478.712C993.993 478.781 993.181 478.842 992.332 478.736C991.784 478.658 989.541 478.337 988.194 476.154C985.785 472.25 984.995 466.896 985.042 460.923C985.099 454.689 986.217 447.764 988.293 440.207C990.46 432.404 993.222 424.779 996.552 417.398C1000.09 409.503 1004.81 401.941 1010.72 394.712C1016.67 387.414 1023.27 381.5 1030.52 377.024C1039.34 371.579 1049.01 368.922 1059.41 369.089C1069.75 369.255 1079.59 372.096 1088.86 377.521" fill="white" fill-opacity="0.25"/>
<path fill-rule="evenodd" clip-rule="evenodd" d="M1506.15 317.403C1510.92 318.053 1515.22 319.141 1518.13 321.198C1521.55 323.614 1523.99 326.879 1524.76 331.003C1525.55 335.233 1524.3 339.222 1521.84 342.713C1517.01 349.551 1511.27 355.633 1504.64 360.958C1498.11 366.205 1491.6 370.335 1485.1 373.289C1479.14 376.029 1472.95 378.236 1466.6 379.885C1460.63 381.399 1455.28 382.201 1450.62 382.161C1446.29 382.126 1442.05 381.487 1438.97 379.313C1435.5 376.862 1433.26 372.875 1431.74 368.335C1430.2 363.709 1429.36 358.46 1429.15 352.665C1428.93 346.537 1429.97 339.839 1432.13 332.635C1434.35 325.222 1437.78 318.224 1442.27 311.92C1443.3 310.462 1444.24 309.214 1445.06 308.307C1446.22 307.061 1447.6 306.028 1449.12 305.254C1451.72 303.856 1454.51 303.861 1457.05 304.658C1459.27 305.357 1461.53 306.629 1463.78 308.217C1466.94 310.449 1471.12 312.296 1476.47 313.632C1482.02 315.013 1487.01 315.802 1491.48 316.031C1496.39 316.285 1501.28 316.743 1506.15 317.403ZM1381.63 279.425C1392.33 280.788 1402.26 284.733 1411.38 291.176C1413.34 292.559 1414.89 293.689 1416 294.547C1417.09 295.381 1418.58 296.57 1420.49 298.115C1422.51 299.759 1424.25 301.391 1425.49 303.002C1426.57 304.404 1427.58 305.959 1428.53 307.67C1429.75 309.876 1430.44 312.327 1430.26 314.93C1430.09 317.409 1429.21 319.674 1427.8 321.669C1424.84 325.858 1422.67 331.025 1421.4 337.279C1420.11 343.735 1419.79 350.349 1420.46 356.9C1420.63 358.605 1421.13 361.038 1422.07 364.307C1423.06 367.779 1423.82 370.765 1424.33 373.265C1424.64 374.64 1424.77 376.048 1424.74 377.456C1424.68 378.788 1424.37 380.48 1423.29 382.009C1420.78 385.562 1416.33 387.349 1411.72 388.347C1406.86 389.38 1401.92 389.963 1396.95 390.088C1391.14 390.302 1385.34 390.692 1379.56 391.257C1372.88 391.877 1367.23 392.784 1362.57 393.946C1357.78 395.254 1353.19 397.228 1348.95 399.81C1344.1 402.699 1340.58 405.054 1338.28 406.884C1337.12 407.838 1335.89 408.704 1334.6 409.477C1334.08 409.773 1333.36 410.148 1332.54 410.384C1332 410.526 1329.81 411.11 1327.72 409.631C1323.97 406.984 1321.14 402.368 1318.84 396.856C1316.45 391.098 1314.76 384.29 1313.71 376.524C1312.65 368.496 1312.2 360.399 1312.37 352.303C1312.53 343.652 1313.9 334.844 1316.5 325.878C1319.11 316.831 1322.86 308.804 1327.78 301.843C1333.76 293.374 1341.62 287.137 1351.24 283.216C1360.82 279.313 1370.99 278.067 1381.64 279.424" fill="white" fill-opacity="0.25"/>
<path fill-rule="evenodd" clip-rule="evenodd" d="M1726.4 134.505C1730.5 137.018 1734 139.747 1735.84 142.802C1738 146.391 1738.91 150.359 1737.96 154.444C1736.98 158.634 1734.23 161.784 1730.57 163.988C1723.4 168.303 1715.7 171.563 1707.48 173.767C1699.4 175.941 1691.77 177.099 1684.63 177.189C1678.08 177.298 1671.52 176.826 1665.05 175.78C1658.97 174.762 1653.75 173.341 1649.5 171.428C1645.55 169.654 1641.93 167.363 1639.99 164.135C1637.8 160.494 1637.35 155.941 1637.78 151.174C1638.23 146.318 1639.58 141.176 1641.72 135.786C1643.98 130.087 1647.64 124.377 1652.51 118.649C1657.53 112.759 1663.48 107.733 1670.13 103.769C1671.66 102.849 1673.02 102.086 1674.14 101.586C1675.71 100.915 1677.38 100.521 1679.08 100.425C1682.02 100.19 1684.58 101.32 1686.59 103.072C1688.33 104.605 1689.9 106.682 1691.31 109.04C1693.31 112.355 1696.39 115.727 1700.75 119.105C1705.28 122.604 1709.53 125.335 1713.52 127.342C1717.91 129.55 1722.21 131.94 1726.4 134.505ZM1627.71 49.6151C1636.95 55.1692 1644.45 62.7767 1650.21 72.3466C1651.44 74.401 1652.41 76.061 1653.08 77.2929C1653.74 78.4938 1654.63 80.1842 1655.75 82.3643C1656.94 84.685 1657.87 86.8768 1658.37 88.8531C1658.79 90.5701 1659.09 92.4012 1659.26 94.3464C1659.49 96.8582 1659.14 99.3793 1657.93 101.692C1656.78 103.893 1655.05 105.609 1652.96 106.868C1648.56 109.512 1644.5 113.37 1640.82 118.583C1637.04 123.972 1634.09 129.899 1632.06 136.166C1631.53 137.795 1631.01 140.223 1630.55 143.592C1630.06 147.171 1629.55 150.208 1629.02 152.705C1628.75 154.087 1628.3 155.43 1627.7 156.703C1627.11 157.898 1626.15 159.325 1624.55 160.289C1620.82 162.532 1616.02 162.373 1611.41 161.435C1606.54 160.424 1601.78 158.967 1597.18 157.082C1591.78 154.94 1586.31 152.961 1580.79 151.15C1574.42 149.028 1568.89 147.584 1564.15 146.771C1559.24 146.041 1554.25 146.003 1549.33 146.658C1543.72 147.35 1539.55 148.088 1536.71 148.837C1535.26 149.243 1533.79 149.542 1532.3 149.73C1531.71 149.792 1530.89 149.844 1530.04 149.729C1529.5 149.645 1527.26 149.298 1525.94 147.1C1523.57 143.169 1522.84 137.806 1522.96 131.834C1523.09 125.601 1524.28 118.689 1526.44 111.156C1528.7 103.379 1531.55 95.7853 1534.96 88.4423C1538.59 80.5885 1543.4 73.0807 1549.39 65.9188C1555.42 58.6889 1562.08 52.8505 1569.39 48.4574C1578.27 43.1126 1587.97 40.5653 1598.36 40.8501C1608.7 41.1342 1618.51 44.0871 1627.72 49.6169" fill="white" fill-opacity="0.25"/>
<path fill-rule="evenodd" clip-rule="evenodd" d="M1416.03 753.041C1420.05 755.688 1423.45 758.531 1425.19 761.645C1427.23 765.303 1428.01 769.298 1426.92 773.35C1425.8 777.506 1422.96 780.564 1419.23 782.645C1411.91 786.722 1404.11 789.727 1395.83 791.659C1387.67 793.566 1380.01 794.472 1372.88 794.327C1366.32 794.22 1359.78 793.532 1353.35 792.274C1347.31 791.056 1342.13 789.464 1337.95 787.413C1334.06 785.509 1330.52 783.101 1328.68 779.81C1326.61 776.099 1326.32 771.534 1326.91 766.784C1327.52 761.945 1329.03 756.85 1331.35 751.533C1333.8 745.912 1337.64 740.325 1342.7 734.761C1347.91 729.04 1354.02 724.212 1360.8 720.469C1362.36 719.6 1363.75 718.883 1364.88 718.42C1366.47 717.8 1368.15 717.462 1369.86 717.421C1372.81 717.284 1375.32 718.498 1377.27 720.314C1378.97 721.905 1380.46 724.031 1381.8 726.435C1383.68 729.814 1386.65 733.285 1390.9 736.805C1395.31 740.452 1399.47 743.321 1403.39 745.459C1407.71 747.81 1411.92 750.339 1416.03 753.041ZM1320.18 664.948C1329.24 670.803 1336.48 678.654 1341.92 688.408C1343.09 690.502 1344 692.193 1344.63 693.446C1345.25 694.668 1346.08 696.387 1347.13 698.603C1348.25 700.961 1349.1 703.183 1349.53 705.174C1349.9 706.904 1350.14 708.744 1350.25 710.694C1350.39 713.212 1349.96 715.72 1348.68 717.992C1347.45 720.153 1345.67 721.811 1343.53 723.001C1339.05 725.499 1334.87 729.221 1331.02 734.311C1327.06 739.572 1323.91 745.399 1321.69 751.595C1321.1 753.206 1320.5 755.615 1319.93 758.967C1319.32 762.528 1318.71 765.547 1318.1 768.025C1317.78 769.397 1317.29 770.725 1316.65 771.978C1316.02 773.152 1315.01 774.547 1313.38 775.458C1309.58 777.576 1304.79 777.26 1300.21 776.171C1295.38 775 1290.67 773.387 1286.14 771.352C1280.81 769.033 1275.41 766.875 1269.94 764.882C1263.65 762.553 1258.17 760.927 1253.46 759.959C1248.58 759.067 1243.59 758.865 1238.65 759.358C1233.03 759.864 1228.83 760.465 1225.97 761.12C1224.51 761.478 1223.03 761.728 1221.53 761.867C1220.93 761.91 1220.12 761.935 1219.28 761.792C1218.73 761.69 1216.51 761.269 1215.26 759.029C1213.02 755.023 1212.47 749.638 1212.78 743.674C1213.12 737.448 1214.54 730.58 1216.95 723.121C1219.46 715.423 1222.55 707.927 1226.21 700.701C1230.1 692.971 1235.15 685.625 1241.37 678.664C1247.63 671.637 1254.49 666.021 1261.93 661.871C1270.99 656.821 1280.77 654.595 1291.14 655.221C1301.46 655.846 1311.17 659.12 1320.19 664.95" fill="white" fill-opacity="0.25"/>
</g>
<defs>
<filter id="filter0_d_532_2" x="0" y="0" width="1928" height="1088" filterUnits="userSpaceOnUse" color-interpolation-filters="sRGB">
<feFlood flood-opacity="0" result="BackgroundImageFix"/>
<feColorMatrix in="SourceAlpha" type="matrix" values="0 0 0 0 0 0 0 0 0 0 0 0 0 0 0 0 0 0 127 0" result="hardAlpha"/>
<feOffset dy="4"/>
<feGaussianBlur stdDeviation="2"/>
<feComposite in2="hardAlpha" operator="out"/>
<feColorMatrix type="matrix" values="0 0 0 0 0 0 0 0 0 0 0 0 0 0 0 0 0 0 0.25 0"/>
<feBlend mode="normal" in2="BackgroundImageFix" result="effect1_dropShadow_532_2"/>
<feBlend mode="normal" in="SourceGraphic" in2="effect1_dropShadow_532_2" result="shape"/>
</filter>
<clipPath id="clip0_532_2">
<rect width="1080" height="1920" fill="white" transform="translate(4 1080) rotate(-90)"/>
</clipPath>
</defs>
</svg>
